<?xml version="1.0" encoding="utf-8"?>
<!-- Generator: Adobe Illustrator 16.0.0, SVG Export Plug-In . SVG Version: 6.00 Build 0)  -->
<!DOCTYPE svg PUBLIC "-//W3C//DTD SVG 1.1//EN" "http://www.w3.org/Graphics/SVG/1.1/DTD/svg11.dtd">
<svg version="1.1" id="Layer_1" xmlns="http://www.w3.org/2000/svg" xmlns:xlink="http://www.w3.org/1999/xlink" x="0px" y="0px"
	 width="682.2px" height="105.5px" viewBox="0 0 682.2 105.5" style="enable-background:new 0 0 682.2 105.5;" xml:space="preserve"
	>
<style type="text/css">
<![CDATA[
	.st0{fill:#808285;}
	.st1{fill:#231F20;}
	.st2{fill:#5C5D60;}
	.st3{fill:#333132;}
	.st4{fill:#D1D3D4;}
	.st5{fill:#A7A9AC;}
]]>
</style>
<g>
	<path class="st5" d="M259.5,100.6c-0.6-0.4-1.1-1-1.5-1.7c-0.4-0.8-0.6-1.7-0.6-2.9c0-1.1,0.2-2,0.7-2.9c0.4-0.9,1.1-1.6,1.9-2.1
		c0.8-0.5,1.8-0.8,2.9-0.8c0.6,0,1.2,0.1,1.7,0.2V87l-1.9-0.2v-0.8l3.4-0.3h0.1l0.4,0.3V100h1.1v0.9c-0.4,0.1-0.7,0.2-1,0.2
		c-0.3,0-0.6,0.1-0.9,0.1s-0.6-0.1-0.7-0.2c-0.1-0.1-0.2-0.4-0.2-0.7v-0.6c-0.3,0.4-0.8,0.8-1.4,1.1c-0.6,0.3-1.2,0.4-1.9,0.4
		C260.9,101.2,260.2,101,259.5,100.6z M263.7,99.5c0.4-0.2,0.7-0.5,1-0.8v-6.9c-0.1-0.1-0.3-0.3-0.7-0.4c-0.4-0.1-0.8-0.2-1.2-0.2
		c-1,0-1.8,0.4-2.3,1.1c-0.6,0.7-0.9,1.9-0.9,3.4c0,1.4,0.3,2.4,0.8,3c0.5,0.7,1.2,1,2,1C262.9,99.9,263.3,99.8,263.7,99.5z"/>
	<path class="st5" d="M275.1,99.7c-0.8-1-1.2-2.3-1.2-4c0-1.1,0.2-2,0.6-2.9c0.4-0.8,1-1.5,1.7-1.9c0.7-0.5,1.6-0.7,2.5-0.7
		c1.2,0,2.1,0.3,2.7,1c0.6,0.6,1,1.6,1,2.8c0,0.8,0,1.3-0.1,1.7h-6.5c0,1.2,0.3,2.2,0.9,3c0.6,0.8,1.3,1.1,2.3,1.1
		c0.5,0,1-0.1,1.6-0.3c0.5-0.2,1-0.4,1.3-0.7l0.4,0.8c-0.4,0.4-0.9,0.7-1.6,1c-0.7,0.3-1.4,0.4-2.2,0.4
		C277,101.2,275.9,100.7,275.1,99.7z M280.5,94.8c0-0.3,0.1-0.5,0.1-0.8c0-0.8-0.2-1.5-0.5-1.9s-0.9-0.7-1.6-0.7
		c-0.7,0-1.3,0.3-1.7,0.8s-0.7,1.4-0.7,2.7H280.5z"/>
	<path class="st5" d="M288,90.6h4.4v0.9l-1.3,0.2l1.9,5.4l0.8,2.4l0.7-2.3l1.9-5.5l-1.3-0.2v-0.9h3.8v0.9l-1,0.2l-3.6,9.5h-1.6
		l-3.8-9.5l-0.8-0.2V90.6z"/>
	<path class="st5" d="M305.4,99.7c-0.8-1-1.2-2.3-1.2-4c0-1.1,0.2-2,0.6-2.9c0.4-0.8,1-1.5,1.7-1.9c0.7-0.5,1.6-0.7,2.5-0.7
		c1.2,0,2.1,0.3,2.7,1c0.6,0.6,1,1.6,1,2.8c0,0.8,0,1.3-0.1,1.7h-6.5c0,1.2,0.3,2.2,0.9,3c0.6,0.8,1.3,1.1,2.3,1.1
		c0.5,0,1-0.1,1.6-0.3c0.5-0.2,1-0.4,1.3-0.7l0.4,0.8c-0.4,0.4-0.9,0.7-1.6,1c-0.7,0.3-1.4,0.4-2.2,0.4
		C307.3,101.2,306.2,100.7,305.4,99.7z M310.8,94.8c0-0.3,0.1-0.5,0.1-0.8c0-0.8-0.2-1.5-0.5-1.9s-0.9-0.7-1.6-0.7
		c-0.7,0-1.3,0.3-1.7,0.8c-0.4,0.5-0.7,1.4-0.7,2.7H310.8z"/>
	<path class="st5" d="M320.5,87l-1.5-0.2V86l3-0.4h0l0.4,0.3v14l1.6,0.1v0.9H319v-0.9l1.5-0.2V87z"/>
	<path class="st5" d="M330.8,92.8c0.5-0.8,1.1-1.5,1.8-1.9c0.8-0.4,1.6-0.6,2.4-0.6c1.6,0,2.8,0.5,3.6,1.5c0.8,1,1.2,2.3,1.2,3.9
		c0,1.1-0.2,2.1-0.7,3c-0.5,0.8-1.1,1.5-1.8,1.9c-0.8,0.4-1.6,0.6-2.4,0.6c-1.6,0-2.8-0.5-3.6-1.5c-0.8-1-1.2-2.3-1.2-3.9
		C330.1,94.6,330.3,93.6,330.8,92.8z M337,99.1c0.5-0.7,0.7-1.8,0.7-3.2c0-1.4-0.2-2.5-0.6-3.3c-0.4-0.8-1.1-1.2-2-1.2
		c-0.9,0-1.5,0.4-2,1.1s-0.7,1.8-0.7,3.2c0,1.4,0.2,2.5,0.7,3.3c0.4,0.8,1.1,1.2,2,1.2C335.8,100.1,336.5,99.8,337,99.1z"/>
	<path class="st5" d="M355.7,98.3c-0.4,0.9-1.1,1.6-1.9,2.1c-0.8,0.5-1.8,0.8-2.9,0.8c-0.3,0-0.6,0-1-0.1c-0.4-0.1-0.6-0.1-0.8-0.2
		l0.1,1.6v1.9l2,0.2v0.9h-5.2v-0.9l1.4-0.2V92l-1.4-0.3v-1l2.7-0.3h0l0.4,0.3v1.1c0.4-0.4,0.8-0.8,1.4-1.1c0.6-0.3,1.2-0.4,1.9-0.4
		c0.7,0,1.4,0.2,2,0.5c0.6,0.4,1.1,0.9,1.5,1.7s0.6,1.7,0.6,2.9C356.4,96.5,356.2,97.5,355.7,98.3z M350.2,91.9
		c-0.4,0.2-0.7,0.4-1,0.7v7.1c0.1,0.2,0.3,0.3,0.7,0.4s0.7,0.2,1.2,0.2c1,0,1.7-0.4,2.3-1.1c0.6-0.8,0.9-1.9,0.9-3.5
		c0-1.4-0.3-2.4-0.8-3c-0.5-0.7-1.2-1-2-1C351.1,91.6,350.6,91.7,350.2,91.9z"/>
	<path class="st5" d="M362.7,100.1l1.1-0.2V92l-1.4-0.3v-1l2.7-0.3l0.3,0.2l0.1,0.8l0,0.6c0.4-0.4,1-0.8,1.8-1.1
		c0.8-0.3,1.4-0.5,2-0.5c0.7,0,1.2,0.1,1.6,0.3c0.4,0.2,0.7,0.6,0.9,1.1c0.4-0.3,1-0.7,1.7-0.9c0.7-0.3,1.4-0.4,2-0.4
		c0.8,0,1.4,0.1,1.8,0.4c0.4,0.3,0.7,0.8,0.9,1.4c0.2,0.6,0.3,1.4,0.3,2.5v5.3l1.4,0.2v0.9h-4.5v-0.9l1.2-0.2v-5.2
		c0-0.7-0.1-1.3-0.2-1.7c-0.1-0.4-0.3-0.8-0.6-1c-0.3-0.2-0.7-0.3-1.3-0.3c-0.4,0-0.9,0.1-1.3,0.3c-0.5,0.2-0.9,0.4-1.2,0.6
		c0.1,0.5,0.2,1.2,0.2,2.1v5.2l1.3,0.2v0.9h-4.5v-0.9l1.2-0.2v-5.3c0-0.8,0-1.3-0.1-1.7c-0.1-0.4-0.3-0.7-0.5-0.9
		c-0.3-0.2-0.7-0.3-1.2-0.3c-0.5,0-0.9,0.1-1.4,0.3c-0.5,0.2-0.9,0.5-1.3,0.8v7.1l1.3,0.2v0.9h-4.4V100.1z"/>
	<path class="st5" d="M387.3,99.7c-0.8-1-1.2-2.3-1.2-4c0-1.1,0.2-2,0.6-2.9c0.4-0.8,1-1.5,1.7-1.9c0.7-0.5,1.6-0.7,2.5-0.7
		c1.2,0,2.1,0.3,2.7,1c0.6,0.6,1,1.6,1,2.8c0,0.8,0,1.3-0.1,1.7h-6.5c0,1.2,0.3,2.2,0.9,3c0.6,0.8,1.3,1.1,2.4,1.1
		c0.5,0,1-0.1,1.6-0.3c0.5-0.2,1-0.4,1.3-0.7l0.4,0.8c-0.4,0.4-0.9,0.7-1.6,1c-0.7,0.3-1.4,0.4-2.2,0.4
		C389.2,101.2,388.1,100.7,387.3,99.7z M392.7,94.8c0-0.3,0.1-0.5,0.1-0.8c0-0.8-0.2-1.5-0.5-1.9s-0.9-0.7-1.6-0.7
		c-0.7,0-1.3,0.3-1.7,0.8c-0.4,0.5-0.7,1.4-0.7,2.7H392.7z"/>
	<path class="st5" d="M402.2,92l-1.4-0.3v-1l2.7-0.3h0.1l0.4,0.3v0.8l0,0.5c0.5-0.4,1-0.8,1.8-1.1c0.7-0.3,1.4-0.5,2.1-0.5
		c0.8,0,1.4,0.2,1.8,0.5c0.4,0.3,0.7,0.8,0.9,1.4c0.2,0.6,0.3,1.5,0.3,2.5v5.3l1.3,0.1v0.9h-4.5v-0.9l1.2-0.1v-5.3
		c0-0.7-0.1-1.3-0.2-1.7c-0.1-0.4-0.3-0.7-0.6-0.9c-0.3-0.2-0.7-0.3-1.2-0.3c-0.5,0-0.9,0.1-1.4,0.3c-0.5,0.2-1,0.5-1.4,0.8v7.1
		l1.3,0.2v0.9H401v-0.9l1.2-0.2V92z"/>
	<path class="st5" d="M419.8,100.7c-0.3-0.3-0.5-0.9-0.5-1.7v-7.2H418V91c0.1,0,0.2-0.1,0.5-0.1c0.3-0.1,0.5-0.1,0.6-0.2
		c0.2-0.1,0.4-0.3,0.5-0.7c0.1-0.2,0.2-0.6,0.4-1.1c0.1-0.5,0.2-0.8,0.2-0.9h1.1l0,2.7h3.1v1.2h-3.1v5.8c0,0.7,0,1.2,0.1,1.5
		c0,0.3,0.1,0.5,0.3,0.6c0.1,0.1,0.4,0.1,0.7,0.1c0.3,0,0.7,0,1.1-0.1c0.4-0.1,0.7-0.2,0.9-0.3l0.3,0.8c-0.3,0.2-0.8,0.4-1.5,0.7
		s-1.3,0.3-1.8,0.3C420.7,101.2,420.2,101,419.8,100.7z"/>
</g>
<g>
	<path d="M11.9,63c-1.7,0-3.2-0.6-4.4-1.9c-1.2-1.4-1.8-3.1-1.8-5.3V45.7c0-2.2-0.4-4-1.1-5.4c-0.3-0.6-0.7-1.1-1.1-1.4
		c-0.4-0.4-1.1-0.6-2-0.8c-0.8-0.1-1.2-0.3-1.4-0.4C0.1,37.5,0,37.2,0,36.7v-0.6c0-0.4,0.1-0.7,0.3-0.8c0.2-0.1,0.7-0.3,1.4-0.5
		c1.5-0.4,2.4-1.2,3-2.3c0.7-1.4,1.1-3.3,1.1-5.5v-9.9c0-2.2,0.6-4,1.8-5.3H7.5c1.1-1.3,2.5-2,4.4-2h2.2c0.5,0,0.8,0,0.9,0.1
		c0.1,0.1,0.1,0.4,0.1,0.9v0.9c0,0.5,0,0.8-0.1,0.8c-0.1,0.1-0.4,0.1-0.9,0.1h-1.8c-1.8,0-2.7,1.8-2.7,5.5v9.8
		c0,4.3-1.7,7.1-5.2,8.4c3.5,1.4,5.2,4.2,5.2,8.6v9.6c0,3.7,0.9,5.5,2.7,5.5h2c0.5,0,0.8,0,0.8,0.1c0.1,0.1,0.1,0.4,0.1,0.8v0.9
		c0,0.5,0,0.8-0.1,0.8S14.7,63,14.2,63H11.9z"/>
	<path d="M670.3,9.9c1.7,0,3.2,0.6,4.4,1.9c1.2,1.4,1.8,3.1,1.8,5.3v10.1c0,2.2,0.4,4,1.1,5.4c0.3,0.6,0.7,1.1,1.1,1.4
		c0.4,0.4,1.1,0.6,2,0.8c0.8,0.1,1.2,0.3,1.4,0.4c0.1,0.1,0.2,0.4,0.2,0.9v0.6c0,0.4-0.1,0.7-0.3,0.8c-0.2,0.1-0.7,0.3-1.4,0.4
		c-1.4,0.4-2.4,1.2-3,2.3c-0.7,1.4-1.1,3.3-1.1,5.5v9.9c0,2.2-0.6,4-1.8,5.3h0.1c-1.1,1.3-2.5,2-4.4,2h-2.2c-0.5,0-0.8,0-0.9-0.1
		c-0.1-0.1-0.1-0.4-0.1-0.9v-0.9c0-0.5,0-0.8,0.1-0.8c0.1-0.1,0.4-0.1,0.9-0.1h1.8c1.8,0,2.7-1.8,2.7-5.5v-9.8
		c0-4.3,1.7-7.1,5.2-8.4c-3.5-1.4-5.2-4.2-5.2-8.6v-9.6c0-3.7-0.9-5.5-2.7-5.5h-2c-0.5,0-0.8,0-0.8-0.1c-0.1-0.1-0.1-0.4-0.1-0.8
		v-0.9c0-0.5,0-0.8,0.1-0.8c0.1-0.1,0.4-0.1,0.9-0.1H670.3z"/>
	<polygon class="st3" points="38.8,61.6 41.6,61.6 63.4,17.9 85.2,61.6 87.9,61.6 63.3,12.5 	"/>
	<path class="st3" d="M146.5,20.8c-1.2-1.1-2.5-2-3.9-2.8c-3.5-1.9-7-2.8-10.7-2.8c-3.7,0-7.3,0.9-10.7,2.8
		c-3.5,1.9-6.2,4.6-8.1,8.1c-2,3.5-2.9,7.1-2.9,11c0,3.8,1,7.4,2.9,10.8c1.9,3.5,4.6,6.1,8.1,8.1c3.5,1.9,7.1,2.9,10.9,2.9
		c3.8,0,7.4-1,10.9-2.9c1.3-0.7,2.5-1.6,3.6-2.5h3.8c-1.7,1.9-3.7,3.6-6,4.9c-3.9,2.2-8,3.2-12.3,3.2c-4.2,0-8.3-1.1-12.2-3.2
		c-3.9-2.2-6.9-5.2-9.1-9.1c-2.2-3.9-3.2-7.9-3.2-12.2c0-4.3,1.1-8.4,3.3-12.3c2.2-3.9,5.2-7,9.2-9.1c3.9-2.1,7.9-3.2,12-3.2
		s8.1,1.1,12,3.2c2.5,1.3,4.6,3.1,6.4,5.1H146.5z"/>
	<path class="st3" d="M175.3,29C175.3,28.9,175.3,28.9,175.3,29c2-3.5,4.7-6.2,8.1-8.1c3.5-1.9,7.1-2.9,10.9-2.9
		c3.8,0,7.4,1,10.9,2.9c3.5,1.9,6.2,4.6,8.1,8.1c1.9,3.5,2.9,7.1,2.9,10.8h-2.7c0-3.3-0.8-6.4-2.5-9.5c-1.7-3-4.1-5.4-7.1-7
		c-3-1.7-6.2-2.5-9.5-2.5c-3.3,0-6.5,0.8-9.5,2.5s-5.4,4-7.1,7c-1.3,2.3-2.1,4.7-2.4,7.2v24.1h-2.7V18h2.7V29z"/>
	<path class="st3" d="M325.9,27.5l-21.8-10.9v44.9h-2.7V12.5l24.5,12.3l24.5-12.3v49.1h-2.7V16.6L325.9,27.5z"/>
	<g>
		<polygon class="st3" points="369.9,61.6 372.6,61.6 394.5,17.9 416.3,61.6 419,61.6 394.4,12.5 		"/>
		<path class="st3" d="M397.7,4.4l-4.1,8.1h-2.7l4.1-8.1H397.7z"/>
	</g>
	<path class="st3" d="M461.6,15.2v46.3h-2.7V15.2h-23.2v-2.7h49.1v2.7H461.6z"/>
	<path class="st3" d="M509.7,61.6H507V12.5h2.7V61.6z"/>
	<path class="st3" d="M573.7,20.8c-1.2-1.1-2.5-2-3.9-2.8c-3.5-1.9-7-2.8-10.7-2.8c-3.7,0-7.3,0.9-10.7,2.8
		c-3.5,1.9-6.2,4.6-8.1,8.1c-2,3.5-2.9,7.1-2.9,11c0,3.8,1,7.4,2.9,10.8c1.9,3.5,4.6,6.1,8.1,8.1c3.5,1.9,7.1,2.9,10.9,2.9
		c3.8,0,7.4-1,10.9-2.9c1.3-0.7,2.5-1.6,3.6-2.5h3.8c-1.7,1.9-3.7,3.6-6,4.9c-3.9,2.2-8,3.2-12.3,3.2c-4.2,0-8.3-1.1-12.2-3.2
		c-3.9-2.2-6.9-5.2-9.1-9.1c-2.2-3.9-3.2-7.9-3.2-12.2c0-4.3,1.1-8.4,3.3-12.3c2.2-3.9,5.2-7,9.2-9.1c3.9-2.1,7.9-3.2,12-3.2
		s8.1,1.1,12,3.2c2.5,1.3,4.6,3.1,6.4,5.1H573.7z"/>
	<g>
		<path class="st3" d="M620,61.4c-13.4,0-24.3-10.9-24.3-24.3c0-13.4,10.9-24.3,24.3-24.3c13.4,0,24.3,10.9,24.3,24.3
			C644.2,50.5,633.4,61.4,620,61.4z M620,15.6c-11.9,0-21.6,9.7-21.6,21.6c0,11.9,9.7,21.6,21.6,21.6c11.9,0,21.6-9.7,21.6-21.6
			C641.5,25.2,631.9,15.6,620,15.6z"/>
	</g>
	<g>
		<circle class="st2" cx="245.4" cy="48.6" r="10.1"/>
		<circle class="st0" cx="272.2" cy="48.6" r="10.1"/>
		<circle class="st1" cx="258.9" cy="25.3" r="10.1"/>
		<path class="st0" d="M258.9,13.6c3.3,0,6.6,1.4,8.9,4.1c4.1,4.9,3.5,12.2-1.4,16.4c-2.2,1.8-4.8,2.7-7.5,2.7
			c-3.3,0-6.6-1.4-8.9-4.1c-4.1-4.9-3.5-12.2,1.4-16.4C253.6,14.5,256.3,13.6,258.9,13.6 M258.9,12.5L258.9,12.5c-3,0-5.9,1.1-8.2,3
			c-2.6,2.2-4.2,5.3-4.5,8.7c-0.3,3.4,0.8,6.7,3,9.3c2.4,2.9,6,4.5,9.8,4.5c3,0,5.9-1.1,8.2-3c5.4-4.5,6.1-12.6,1.5-18
			C266.2,14.1,262.7,12.5,258.9,12.5L258.9,12.5z"/>
		<path class="st5" d="M245.4,37c3.3,0,6.6,1.4,8.9,4.1c4.1,4.9,3.5,12.2-1.4,16.4c-2.2,1.8-4.8,2.7-7.5,2.7c-3.3,0-6.6-1.4-8.9-4.1
			c-4.1-4.9-3.5-12.2,1.4-16.4C240.1,37.9,242.7,37,245.4,37 M245.4,35.8L245.4,35.8c-3,0-5.9,1.1-8.2,3c-2.6,2.2-4.2,5.3-4.5,8.7
			c-0.3,3.4,0.8,6.7,3,9.3c2.4,2.9,6,4.5,9.8,4.5c3,0,5.9-1.1,8.2-3c5.4-4.5,6.1-12.6,1.5-18C252.7,37.5,249.2,35.8,245.4,35.8
			L245.4,35.8z"/>
		<path class="st4" d="M272.2,37c3.3,0,6.6,1.4,8.9,4.1c4.1,4.9,3.5,12.2-1.4,16.4c-2.2,1.8-4.8,2.7-7.5,2.7c-3.3,0-6.6-1.4-8.9-4.1
			c-4.1-4.9-3.5-12.2,1.4-16.4C266.8,37.9,269.5,37,272.2,37 M272.2,35.8L272.2,35.8c-3,0-5.9,1.1-8.2,3c-2.6,2.2-4.2,5.3-4.5,8.7
			c-0.3,3.4,0.8,6.7,3,9.3c2.4,2.9,6,4.5,9.8,4.5c3,0,5.9-1.1,8.2-3c5.4-4.5,6.1-12.6,1.5-18C279.5,37.5,275.9,35.8,272.2,35.8
			L272.2,35.8z"/>
	</g>
</g>
</svg>

